<svg width="110" height="31" viewBox="0 0 110 31" fill="none" xmlns="http://www.w3.org/2000/svg">
<g clip-path="url(#clip0)">
<path d="M4.35315 23.0651L12.8162 22.9714L16.9664 15.5933L12.6513 8.31204L4.1882 8.4073L0.0379833 15.7838L4.35315 23.0651ZM4.93166 9.66344L11.9349 9.5829L15.5051 15.6088L12.0712 21.7137L5.06796 21.7927L1.49857 15.7683L4.93166 9.66344Z" fill="#FF7D9A"/>
<path d="M18.1838 16.3383L14.0351 23.7164L18.3503 31L26.8134 30.9032L30.962 23.5267L26.6484 16.2454L18.1838 16.3383ZM26.0707 29.6478L19.0643 29.7268L15.4965 23.7009L18.9288 17.596L25.9328 17.5155L29.5007 23.5429L26.0707 29.6478Z" fill="#FF7D9A"/>
<path d="M30.7786 7.28437L26.6291 14.6609L18.1661 14.7577L13.8517 7.47333L18.0003 0.0952566L26.4649 1.53024e-06L30.7786 7.28437Z" fill="#FF7D9A"/>
</g>
<path d="M40.156 5.18403C40.612 5.18403 41.008 5.27603 41.344 5.46003C41.688 5.64403 41.952 5.89203 42.136 6.20403V5.26803H44.488V11.928C44.488 12.56 44.368 13.128 44.128 13.632C43.888 14.144 43.512 14.552 43 14.856C42.496 15.16 41.856 15.312 41.08 15.312C40.04 15.312 39.208 15.068 38.584 14.58C37.96 14.092 37.604 13.428 37.516 12.588H39.832C39.88 12.804 40 12.972 40.192 13.092C40.384 13.212 40.632 13.272 40.936 13.272C41.736 13.272 42.136 12.824 42.136 11.928V11.064C41.952 11.376 41.688 11.624 41.344 11.808C41.008 11.992 40.612 12.084 40.156 12.084C39.62 12.084 39.132 11.944 38.692 11.664C38.26 11.384 37.916 10.984 37.66 10.464C37.412 9.93603 37.288 9.32403 37.288 8.62803C37.288 7.93203 37.412 7.32403 37.66 6.80403C37.916 6.28403 38.26 5.88403 38.692 5.60403C39.132 5.32403 39.62 5.18403 40.156 5.18403ZM42.136 8.62803C42.136 8.19603 42.016 7.85603 41.776 7.60803C41.544 7.36003 41.256 7.23603 40.912 7.23603C40.56 7.23603 40.268 7.36003 40.036 7.60803C39.804 7.84803 39.688 8.18803 39.688 8.62803C39.688 9.06003 39.804 9.40403 40.036 9.66003C40.268 9.90803 40.56 10.032 40.912 10.032C41.256 10.032 41.544 9.90803 41.776 9.66003C42.016 9.41203 42.136 9.06803 42.136 8.62803ZM48.1803 6.45603C48.4443 6.07203 48.7643 5.76803 49.1403 5.54403C49.5163 5.32003 49.9203 5.20803 50.3523 5.20803V7.71603H49.6923C49.1803 7.71603 48.8003 7.81603 48.5523 8.01603C48.3043 8.21603 48.1803 8.56403 48.1803 9.06003V12H45.8283V5.26803H48.1803V6.45603ZM52.3834 4.64403C51.9674 4.64403 51.6314 4.53203 51.3754 4.30803C51.1274 4.07603 51.0034 3.78803 51.0034 3.44403C51.0034 3.09203 51.1274 2.80003 51.3754 2.56803C51.6314 2.33603 51.9674 2.22003 52.3834 2.22003C52.7914 2.22003 53.1194 2.33603 53.3674 2.56803C53.6234 2.80003 53.7514 3.09203 53.7514 3.44403C53.7514 3.78803 53.6234 4.07603 53.3674 4.30803C53.1194 4.53203 52.7914 4.64403 52.3834 4.64403ZM53.5474 5.26803V12H51.1954V5.26803H53.5474ZM54.5028 8.62803C54.5028 7.93203 54.6268 7.32403 54.8748 6.80403C55.1308 6.28403 55.4788 5.88403 55.9188 5.60403C56.3588 5.32403 56.8468 5.18403 57.3828 5.18403C57.8148 5.18403 58.1988 5.27603 58.5348 5.46003C58.8788 5.63603 59.1468 5.88003 59.3388 6.19203V3.12003H61.7028V12H59.3388V11.064C59.1548 11.376 58.8948 11.624 58.5588 11.808C58.2228 11.992 57.8268 12.084 57.3708 12.084C56.8348 12.084 56.3468 11.944 55.9068 11.664C55.4748 11.384 55.1308 10.984 54.8748 10.464C54.6268 9.93603 54.5028 9.32403 54.5028 8.62803ZM59.3508 8.62803C59.3508 8.19603 59.2308 7.85603 58.9908 7.60803C58.7588 7.36003 58.4708 7.23603 58.1268 7.23603C57.7748 7.23603 57.4828 7.36003 57.2508 7.60803C57.0188 7.84803 56.9028 8.18803 56.9028 8.62803C56.9028 9.06003 57.0188 9.40403 57.2508 9.66003C57.4828 9.90803 57.7748 10.032 58.1268 10.032C58.4708 10.032 58.7588 9.90803 58.9908 9.66003C59.2308 9.41203 59.3508 9.06803 59.3508 8.62803ZM46.468 20.208C47.316 20.208 47.98 20.464 48.46 20.976C48.948 21.488 49.192 22.188 49.192 23.076V27H46.84V23.388C46.84 23.028 46.74 22.748 46.54 22.548C46.34 22.348 46.068 22.248 45.724 22.248C45.38 22.248 45.108 22.348 44.908 22.548C44.708 22.748 44.608 23.028 44.608 23.388V27H42.256V23.388C42.256 23.028 42.156 22.748 41.956 22.548C41.764 22.348 41.496 22.248 41.152 22.248C40.8 22.248 40.524 22.348 40.324 22.548C40.124 22.748 40.024 23.028 40.024 23.388V27H37.672V20.268H40.024V21.156C40.232 20.868 40.5 20.64 40.828 20.472C41.164 20.296 41.548 20.208 41.98 20.208C42.476 20.208 42.916 20.316 43.3 20.532C43.692 20.748 44 21.052 44.224 21.444C44.464 21.076 44.78 20.78 45.172 20.556C45.564 20.324 45.996 20.208 46.468 20.208ZM50.0966 23.628C50.0966 22.932 50.2206 22.324 50.4686 21.804C50.7246 21.284 51.0686 20.884 51.5006 20.604C51.9406 20.324 52.4286 20.184 52.9646 20.184C53.4286 20.184 53.8286 20.276 54.1646 20.46C54.5006 20.644 54.7606 20.892 54.9446 21.204V20.268H57.2966V27H54.9446V26.064C54.7606 26.376 54.4966 26.624 54.1526 26.808C53.8166 26.992 53.4206 27.084 52.9646 27.084C52.4286 27.084 51.9406 26.944 51.5006 26.664C51.0686 26.384 50.7246 25.984 50.4686 25.464C50.2206 24.936 50.0966 24.324 50.0966 23.628ZM54.9446 23.628C54.9446 23.196 54.8246 22.856 54.5846 22.608C54.3526 22.36 54.0646 22.236 53.7206 22.236C53.3686 22.236 53.0766 22.36 52.8446 22.608C52.6126 22.848 52.4966 23.188 52.4966 23.628C52.4966 24.06 52.6126 24.404 52.8446 24.66C53.0766 24.908 53.3686 25.032 53.7206 25.032C54.0646 25.032 54.3526 24.908 54.5846 24.66C54.8246 24.412 54.9446 24.068 54.9446 23.628ZM62.8488 27L60.9888 24.24V27H58.6368V18.12H60.9888V22.908L62.8488 20.268H65.6688L63.0168 23.652L65.7168 27H62.8488ZM72.8384 23.556C72.8384 23.74 72.8264 23.924 72.8024 24.108H68.3504C68.3744 24.476 68.4744 24.752 68.6504 24.936C68.8344 25.112 69.0664 25.2 69.3464 25.2C69.7384 25.2 70.0184 25.024 70.1864 24.672H72.6944C72.5904 25.136 72.3864 25.552 72.0824 25.92C71.7864 26.28 71.4104 26.564 70.9544 26.772C70.4984 26.98 69.9944 27.084 69.4424 27.084C68.7784 27.084 68.1864 26.944 67.6664 26.664C67.1544 26.384 66.7504 25.984 66.4544 25.464C66.1664 24.944 66.0224 24.332 66.0224 23.628C66.0224 22.924 66.1664 22.316 66.4544 21.804C66.7424 21.284 67.1424 20.884 67.6544 20.604C68.1744 20.324 68.7704 20.184 69.4424 20.184C70.1064 20.184 70.6944 20.32 71.2064 20.592C71.7184 20.864 72.1184 21.256 72.4064 21.768C72.6944 22.272 72.8384 22.868 72.8384 23.556ZM70.4384 22.968C70.4384 22.68 70.3424 22.456 70.1504 22.296C69.9584 22.128 69.7184 22.044 69.4304 22.044C69.1424 22.044 68.9064 22.124 68.7224 22.284C68.5384 22.436 68.4184 22.664 68.3624 22.968H70.4384ZM76.1529 21.456C76.4169 21.072 76.7369 20.768 77.1129 20.544C77.4889 20.32 77.8929 20.208 78.3249 20.208V22.716H77.6649C77.1529 22.716 76.7729 22.816 76.5249 23.016C76.2769 23.216 76.1529 23.564 76.1529 24.06V27H73.8009V20.268H76.1529V21.456Z" fill="#555555"/>
<path d="M67.824 5.18403C68.28 5.18403 68.676 5.27603 69.012 5.46003C69.356 5.64403 69.62 5.89203 69.804 6.20403V5.26803H72.156V11.928C72.156 12.56 72.036 13.128 71.796 13.632C71.556 14.144 71.18 14.552 70.668 14.856C70.164 15.16 69.524 15.312 68.748 15.312C67.708 15.312 66.876 15.068 66.252 14.58C65.628 14.092 65.272 13.428 65.184 12.588H67.5C67.548 12.804 67.668 12.972 67.86 13.092C68.052 13.212 68.3 13.272 68.604 13.272C69.404 13.272 69.804 12.824 69.804 11.928V11.064C69.62 11.376 69.356 11.624 69.012 11.808C68.676 11.992 68.28 12.084 67.824 12.084C67.288 12.084 66.8 11.944 66.36 11.664C65.928 11.384 65.584 10.984 65.328 10.464C65.08 9.93603 64.956 9.32403 64.956 8.62803C64.956 7.93203 65.08 7.32403 65.328 6.80403C65.584 6.28403 65.928 5.88403 66.36 5.60403C66.8 5.32403 67.288 5.18403 67.824 5.18403ZM69.804 8.62803C69.804 8.19603 69.684 7.85603 69.444 7.60803C69.212 7.36003 68.924 7.23603 68.58 7.23603C68.228 7.23603 67.936 7.36003 67.704 7.60803C67.472 7.84803 67.356 8.18803 67.356 8.62803C67.356 9.06003 67.472 9.40403 67.704 9.66003C67.936 9.90803 68.228 10.032 68.58 10.032C68.924 10.032 69.212 9.90803 69.444 9.66003C69.684 9.41203 69.804 9.06803 69.804 8.62803ZM73.1122 8.62803C73.1122 7.93203 73.2362 7.32403 73.4842 6.80403C73.7402 6.28403 74.0842 5.88403 74.5162 5.60403C74.9562 5.32403 75.4442 5.18403 75.9802 5.18403C76.4442 5.18403 76.8442 5.27603 77.1802 5.46003C77.5162 5.64403 77.7762 5.89203 77.9602 6.20403V5.26803H80.3122V12H77.9602V11.064C77.7762 11.376 77.5122 11.624 77.1682 11.808C76.8322 11.992 76.4362 12.084 75.9802 12.084C75.4442 12.084 74.9562 11.944 74.5162 11.664C74.0842 11.384 73.7402 10.984 73.4842 10.464C73.2362 9.93603 73.1122 9.32403 73.1122 8.62803ZM77.9602 8.62803C77.9602 8.19603 77.8402 7.85603 77.6002 7.60803C77.3682 7.36003 77.0802 7.23603 76.7362 7.23603C76.3842 7.23603 76.0922 7.36003 75.8602 7.60803C75.6282 7.84803 75.5122 8.18803 75.5122 8.62803C75.5122 9.06003 75.6282 9.40403 75.8602 9.66003C76.0922 9.90803 76.3842 10.032 76.7362 10.032C77.0802 10.032 77.3682 9.90803 77.6002 9.66003C77.8402 9.41203 77.9602 9.06803 77.9602 8.62803ZM84.0045 3.12003V12H81.6525V3.12003H84.0045ZM87.6959 3.12003V12H85.3439V3.12003H87.6959ZM95.4673 8.55603C95.4673 8.74003 95.4553 8.92403 95.4313 9.10803H90.9793C91.0033 9.47603 91.1033 9.75203 91.2793 9.93603C91.4633 10.112 91.6953 10.2 91.9753 10.2C92.3673 10.2 92.6473 10.024 92.8153 9.67203H95.3233C95.2193 10.136 95.0153 10.552 94.7113 10.92C94.4153 11.28 94.0393 11.564 93.5833 11.772C93.1273 11.98 92.6233 12.084 92.0713 12.084C91.4073 12.084 90.8153 11.944 90.2953 11.664C89.7833 11.384 89.3793 10.984 89.0833 10.464C88.7953 9.94403 88.6513 9.33203 88.6513 8.62803C88.6513 7.92403 88.7953 7.31603 89.0833 6.80403C89.3713 6.28403 89.7713 5.88403 90.2833 5.60403C90.8033 5.32403 91.3993 5.18403 92.0713 5.18403C92.7353 5.18403 93.3233 5.32003 93.8353 5.59203C94.3473 5.86403 94.7473 6.25603 95.0353 6.76803C95.3233 7.27203 95.4673 7.86803 95.4673 8.55603ZM93.0673 7.96803C93.0673 7.68003 92.9713 7.45603 92.7793 7.29603C92.5873 7.12803 92.3473 7.04403 92.0593 7.04403C91.7713 7.04403 91.5353 7.12403 91.3513 7.28403C91.1673 7.43603 91.0473 7.66403 90.9913 7.96803H93.0673ZM98.7818 6.45603C99.0458 6.07203 99.3658 5.76803 99.7418 5.54403C100.118 5.32003 100.522 5.20803 100.954 5.20803V7.71603H100.294C99.7818 7.71603 99.4018 7.81603 99.1538 8.01603C98.9058 8.21603 98.7818 8.56403 98.7818 9.06003V12H96.4298V5.26803H98.7818V6.45603ZM109.045 5.26803L104.773 15.204H102.217L103.825 11.712L101.065 5.26803H103.681L105.097 9.08403L106.465 5.26803H109.045Z" fill="#FF7D9A"/>
<defs>
<clipPath id="clip0">
<rect width="31" height="31" fill="white" transform="translate(31 31) rotate(-180)"/>
</clipPath>
</defs>
</svg>
