<svg width="131" height="31" viewBox="0 0 131 31" fill="none" xmlns="http://www.w3.org/2000/svg">
<g clip-path="url(#clip0)">
<path d="M4.35315 23.0651L12.8162 22.9714L16.9664 15.5933L12.6513 8.31204L4.1882 8.4073L0.0379836 15.7838L4.35315 23.0651ZM4.93166 9.66344L11.9349 9.5829L15.5051 15.6088L12.0712 21.7137L5.06796 21.7927L1.49857 15.7683L4.93166 9.66344Z" fill="#FF7D9A"/>
<path d="M18.1838 16.3383L14.0351 23.7164L18.3503 31L26.8134 30.9032L30.962 23.5267L26.6484 16.2454L18.1838 16.3383ZM26.0707 29.6478L19.0643 29.7268L15.4965 23.7009L18.9288 17.596L25.9328 17.5155L29.5007 23.5429L26.0707 29.6478Z" fill="#FF7D9A"/>
<path d="M30.7786 7.28437L26.6291 14.6609L18.1661 14.7577L13.8517 7.47333L18.0003 0.0952566L26.4649 1.53024e-06L30.7786 7.28437Z" fill="#FF7D9A"/>
</g>
<path d="M46.468 5.20803C47.316 5.20803 47.98 5.46403 48.46 5.97603C48.948 6.48803 49.192 7.18803 49.192 8.07603V12H46.84V8.38803C46.84 8.02803 46.74 7.74803 46.54 7.54803C46.34 7.34803 46.068 7.24803 45.724 7.24803C45.38 7.24803 45.108 7.34803 44.908 7.54803C44.708 7.74803 44.608 8.02803 44.608 8.38803V12H42.256V8.38803C42.256 8.02803 42.156 7.74803 41.956 7.54803C41.764 7.34803 41.496 7.24803 41.152 7.24803C40.8 7.24803 40.524 7.34803 40.324 7.54803C40.124 7.74803 40.024 8.02803 40.024 8.38803V12H37.672V5.26803H40.024V6.15603C40.232 5.86803 40.5 5.64003 40.828 5.47203C41.164 5.29603 41.548 5.20803 41.98 5.20803C42.476 5.20803 42.916 5.31603 43.3 5.53203C43.692 5.74803 44 6.05203 44.224 6.44403C44.464 6.07603 44.78 5.78003 45.172 5.55603C45.564 5.32403 45.996 5.20803 46.468 5.20803ZM53.6126 12.084C52.9406 12.084 52.3366 11.944 51.8006 11.664C51.2726 11.384 50.8566 10.984 50.5526 10.464C50.2486 9.94403 50.0966 9.33203 50.0966 8.62803C50.0966 7.93203 50.2486 7.32403 50.5526 6.80403C50.8646 6.28403 51.2846 5.88403 51.8126 5.60403C52.3486 5.32403 52.9526 5.18403 53.6246 5.18403C54.2966 5.18403 54.8966 5.32403 55.4246 5.60403C55.9606 5.88403 56.3806 6.28403 56.6846 6.80403C56.9966 7.32403 57.1526 7.93203 57.1526 8.62803C57.1526 9.32403 56.9966 9.93603 56.6846 10.464C56.3806 10.984 55.9606 11.384 55.4246 11.664C54.8886 11.944 54.2846 12.084 53.6126 12.084ZM53.6126 10.044C53.9406 10.044 54.2126 9.92403 54.4286 9.68403C54.6526 9.43603 54.7646 9.08403 54.7646 8.62803C54.7646 8.17203 54.6526 7.82403 54.4286 7.58403C54.2126 7.34403 53.9446 7.22403 53.6246 7.22403C53.3046 7.22403 53.0366 7.34403 52.8206 7.58403C52.6046 7.82403 52.4966 8.17203 52.4966 8.62803C52.4966 9.09203 52.6006 9.44403 52.8086 9.68403C53.0166 9.92403 53.2846 10.044 53.6126 10.044ZM60.9775 12.084C60.3695 12.084 59.8255 11.984 59.3455 11.784C58.8735 11.576 58.4975 11.296 58.2175 10.944C57.9455 10.584 57.7935 10.18 57.7615 9.73203H60.0415C60.0735 9.94803 60.1735 10.116 60.3415 10.236C60.5095 10.356 60.7175 10.416 60.9655 10.416C61.1575 10.416 61.3095 10.376 61.4215 10.296C61.5335 10.216 61.5895 10.112 61.5895 9.98403C61.5895 9.81603 61.4975 9.69203 61.3135 9.61203C61.1295 9.53203 60.8255 9.44403 60.4015 9.34803C59.9215 9.25203 59.5215 9.14403 59.2015 9.02403C58.8815 8.90403 58.6015 8.70803 58.3615 8.43603C58.1295 8.16403 58.0135 7.79603 58.0135 7.33203C58.0135 6.93203 58.1215 6.57203 58.3375 6.25203C58.5535 5.92403 58.8695 5.66403 59.2855 5.47203C59.7095 5.28003 60.2175 5.18403 60.8095 5.18403C61.6895 5.18403 62.3815 5.40003 62.8855 5.83203C63.3895 6.26403 63.6815 6.83203 63.7615 7.53603H61.6375C61.5975 7.32003 61.5015 7.15603 61.3495 7.04403C61.2055 6.92403 61.0095 6.86403 60.7615 6.86403C60.5695 6.86403 60.4215 6.90003 60.3175 6.97203C60.2215 7.04403 60.1735 7.14403 60.1735 7.27203C60.1735 7.43203 60.2655 7.55603 60.4495 7.64403C60.6335 7.72403 60.9295 7.80803 61.3375 7.89603C61.8255 8.00003 62.2295 8.11603 62.5495 8.24403C62.8775 8.37203 63.1615 8.58003 63.4015 8.86803C63.6495 9.14803 63.7735 9.53203 63.7735 10.02C63.7735 10.412 63.6575 10.764 63.4255 11.076C63.2015 11.388 62.8775 11.636 62.4535 11.82C62.0375 11.996 61.5455 12.084 60.9775 12.084ZM64.5458 8.62803C64.5458 7.93203 64.6698 7.32403 64.9178 6.80403C65.1738 6.28403 65.5178 5.88403 65.9498 5.60403C66.3898 5.32403 66.8778 5.18403 67.4138 5.18403C67.8778 5.18403 68.2778 5.27603 68.6138 5.46003C68.9498 5.64403 69.2098 5.89203 69.3938 6.20403V5.26803H71.7458V12H69.3938V11.064C69.2098 11.376 68.9458 11.624 68.6018 11.808C68.2658 11.992 67.8698 12.084 67.4138 12.084C66.8778 12.084 66.3898 11.944 65.9498 11.664C65.5178 11.384 65.1738 10.984 64.9178 10.464C64.6698 9.93603 64.5458 9.32403 64.5458 8.62803ZM69.3938 8.62803C69.3938 8.19603 69.2738 7.85603 69.0338 7.60803C68.8018 7.36003 68.5138 7.23603 68.1698 7.23603C67.8178 7.23603 67.5258 7.36003 67.2938 7.60803C67.0618 7.84803 66.9458 8.18803 66.9458 8.62803C66.9458 9.06003 67.0618 9.40403 67.2938 9.66003C67.5258 9.90803 67.8178 10.032 68.1698 10.032C68.5138 10.032 68.8018 9.90803 69.0338 9.66003C69.2738 9.41203 69.3938 9.06803 69.3938 8.62803ZM74.2741 4.64403C73.8581 4.64403 73.5221 4.53203 73.2661 4.30803C73.0181 4.07603 72.8941 3.78803 72.8941 3.44403C72.8941 3.09203 73.0181 2.80003 73.2661 2.56803C73.5221 2.33603 73.8581 2.22003 74.2741 2.22003C74.6821 2.22003 75.0101 2.33603 75.2581 2.56803C75.5141 2.80003 75.6421 3.09203 75.6421 3.44403C75.6421 3.78803 75.5141 4.07603 75.2581 4.30803C75.0101 4.53203 74.6821 4.64403 74.2741 4.64403ZM75.4381 5.26803V12H73.0861V5.26803H75.4381ZM76.3935 8.62803C76.3935 7.93203 76.5375 7.32403 76.8255 6.80403C77.1135 6.28403 77.5135 5.88403 78.0255 5.60403C78.5455 5.32403 79.1375 5.18403 79.8015 5.18403C80.6575 5.18403 81.3775 5.42003 81.9615 5.89203C82.5455 6.35603 82.9215 7.00803 83.0895 7.84803H80.5935C80.4495 7.40803 80.1695 7.18803 79.7535 7.18803C79.4575 7.18803 79.2215 7.31203 79.0455 7.56003C78.8775 7.80003 78.7935 8.15603 78.7935 8.62803C78.7935 9.10003 78.8775 9.46003 79.0455 9.70803C79.2215 9.95603 79.4575 10.08 79.7535 10.08C80.1775 10.08 80.4575 9.86003 80.5935 9.42003H83.0895C82.9215 10.252 82.5455 10.904 81.9615 11.376C81.3775 11.848 80.6575 12.084 79.8015 12.084C79.1375 12.084 78.5455 11.944 78.0255 11.664C77.5135 11.384 77.1135 10.984 76.8255 10.464C76.5375 9.94403 76.3935 9.33203 76.3935 8.62803ZM46.468 20.208C47.316 20.208 47.98 20.464 48.46 20.976C48.948 21.488 49.192 22.188 49.192 23.076V27H46.84V23.388C46.84 23.028 46.74 22.748 46.54 22.548C46.34 22.348 46.068 22.248 45.724 22.248C45.38 22.248 45.108 22.348 44.908 22.548C44.708 22.748 44.608 23.028 44.608 23.388V27H42.256V23.388C42.256 23.028 42.156 22.748 41.956 22.548C41.764 22.348 41.496 22.248 41.152 22.248C40.8 22.248 40.524 22.348 40.324 22.548C40.124 22.748 40.024 23.028 40.024 23.388V27H37.672V20.268H40.024V21.156C40.232 20.868 40.5 20.64 40.828 20.472C41.164 20.296 41.548 20.208 41.98 20.208C42.476 20.208 42.916 20.316 43.3 20.532C43.692 20.748 44 21.052 44.224 21.444C44.464 21.076 44.78 20.78 45.172 20.556C45.564 20.324 45.996 20.208 46.468 20.208ZM50.0966 23.628C50.0966 22.932 50.2206 22.324 50.4686 21.804C50.7246 21.284 51.0686 20.884 51.5006 20.604C51.9406 20.324 52.4286 20.184 52.9646 20.184C53.4286 20.184 53.8286 20.276 54.1646 20.46C54.5006 20.644 54.7606 20.892 54.9446 21.204V20.268H57.2966V27H54.9446V26.064C54.7606 26.376 54.4966 26.624 54.1526 26.808C53.8166 26.992 53.4206 27.084 52.9646 27.084C52.4286 27.084 51.9406 26.944 51.5006 26.664C51.0686 26.384 50.7246 25.984 50.4686 25.464C50.2206 24.936 50.0966 24.324 50.0966 23.628ZM54.9446 23.628C54.9446 23.196 54.8246 22.856 54.5846 22.608C54.3526 22.36 54.0646 22.236 53.7206 22.236C53.3686 22.236 53.0766 22.36 52.8446 22.608C52.6126 22.848 52.4966 23.188 52.4966 23.628C52.4966 24.06 52.6126 24.404 52.8446 24.66C53.0766 24.908 53.3686 25.032 53.7206 25.032C54.0646 25.032 54.3526 24.908 54.5846 24.66C54.8246 24.412 54.9446 24.068 54.9446 23.628ZM62.8488 27L60.9888 24.24V27H58.6368V18.12H60.9888V22.908L62.8488 20.268H65.6688L63.0168 23.652L65.7168 27H62.8488ZM72.8384 23.556C72.8384 23.74 72.8264 23.924 72.8024 24.108H68.3504C68.3744 24.476 68.4744 24.752 68.6504 24.936C68.8344 25.112 69.0664 25.2 69.3464 25.2C69.7384 25.2 70.0184 25.024 70.1864 24.672H72.6944C72.5904 25.136 72.3864 25.552 72.0824 25.92C71.7864 26.28 71.4104 26.564 70.9544 26.772C70.4984 26.98 69.9944 27.084 69.4424 27.084C68.7784 27.084 68.1864 26.944 67.6664 26.664C67.1544 26.384 66.7504 25.984 66.4544 25.464C66.1664 24.944 66.0224 24.332 66.0224 23.628C66.0224 22.924 66.1664 22.316 66.4544 21.804C66.7424 21.284 67.1424 20.884 67.6544 20.604C68.1744 20.324 68.7704 20.184 69.4424 20.184C70.1064 20.184 70.6944 20.32 71.2064 20.592C71.7184 20.864 72.1184 21.256 72.4064 21.768C72.6944 22.272 72.8384 22.868 72.8384 23.556ZM70.4384 22.968C70.4384 22.68 70.3424 22.456 70.1504 22.296C69.9584 22.128 69.7184 22.044 69.4304 22.044C69.1424 22.044 68.9064 22.124 68.7224 22.284C68.5384 22.436 68.4184 22.664 68.3624 22.968H70.4384ZM76.1529 21.456C76.4169 21.072 76.7369 20.768 77.1129 20.544C77.4889 20.32 77.8929 20.208 78.3249 20.208V22.716H77.6649C77.1529 22.716 76.7729 22.816 76.5249 23.016C76.2769 23.216 76.1529 23.564 76.1529 24.06V27H73.8009V20.268H76.1529V21.456Z" fill="#555555"/>
<path d="M88.8474 5.18403C89.3034 5.18403 89.6994 5.27603 90.0354 5.46003C90.3794 5.64403 90.6434 5.89203 90.8274 6.20403V5.26803H93.1794V11.928C93.1794 12.56 93.0594 13.128 92.8194 13.632C92.5794 14.144 92.2034 14.552 91.6914 14.856C91.1874 15.16 90.5474 15.312 89.7714 15.312C88.7314 15.312 87.8994 15.068 87.2754 14.58C86.6514 14.092 86.2954 13.428 86.2074 12.588H88.5234C88.5714 12.804 88.6914 12.972 88.8834 13.092C89.0754 13.212 89.3234 13.272 89.6274 13.272C90.4274 13.272 90.8274 12.824 90.8274 11.928V11.064C90.6434 11.376 90.3794 11.624 90.0354 11.808C89.6994 11.992 89.3034 12.084 88.8474 12.084C88.3114 12.084 87.8234 11.944 87.3834 11.664C86.9514 11.384 86.6074 10.984 86.3514 10.464C86.1034 9.93603 85.9794 9.32403 85.9794 8.62803C85.9794 7.93203 86.1034 7.32403 86.3514 6.80403C86.6074 6.28403 86.9514 5.88403 87.3834 5.60403C87.8234 5.32403 88.3114 5.18403 88.8474 5.18403ZM90.8274 8.62803C90.8274 8.19603 90.7074 7.85603 90.4674 7.60803C90.2354 7.36003 89.9474 7.23603 89.6034 7.23603C89.2514 7.23603 88.9594 7.36003 88.7274 7.60803C88.4954 7.84803 88.3794 8.18803 88.3794 8.62803C88.3794 9.06003 88.4954 9.40403 88.7274 9.66003C88.9594 9.90803 89.2514 10.032 89.6034 10.032C89.9474 10.032 90.2354 9.90803 90.4674 9.66003C90.7074 9.41203 90.8274 9.06803 90.8274 8.62803ZM94.1357 8.62803C94.1357 7.93203 94.2597 7.32403 94.5077 6.80403C94.7637 6.28403 95.1077 5.88403 95.5397 5.60403C95.9797 5.32403 96.4677 5.18403 97.0037 5.18403C97.4677 5.18403 97.8677 5.27603 98.2037 5.46003C98.5397 5.64403 98.7997 5.89203 98.9837 6.20403V5.26803H101.336V12H98.9837V11.064C98.7997 11.376 98.5357 11.624 98.1917 11.808C97.8557 11.992 97.4597 12.084 97.0037 12.084C96.4677 12.084 95.9797 11.944 95.5397 11.664C95.1077 11.384 94.7637 10.984 94.5077 10.464C94.2597 9.93603 94.1357 9.32403 94.1357 8.62803ZM98.9837 8.62803C98.9837 8.19603 98.8637 7.85603 98.6237 7.60803C98.3917 7.36003 98.1037 7.23603 97.7597 7.23603C97.4077 7.23603 97.1157 7.36003 96.8837 7.60803C96.6517 7.84803 96.5357 8.18803 96.5357 8.62803C96.5357 9.06003 96.6517 9.40403 96.8837 9.66003C97.1157 9.90803 97.4077 10.032 97.7597 10.032C98.1037 10.032 98.3917 9.90803 98.6237 9.66003C98.8637 9.41203 98.9837 9.06803 98.9837 8.62803ZM105.028 3.12003V12H102.676V3.12003H105.028ZM108.719 3.12003V12H106.367V3.12003H108.719ZM116.491 8.55603C116.491 8.74003 116.479 8.92403 116.455 9.10803H112.003C112.027 9.47603 112.127 9.75203 112.303 9.93603C112.487 10.112 112.719 10.2 112.999 10.2C113.391 10.2 113.671 10.024 113.839 9.67203H116.347C116.243 10.136 116.039 10.552 115.735 10.92C115.439 11.28 115.063 11.564 114.607 11.772C114.151 11.98 113.647 12.084 113.095 12.084C112.431 12.084 111.839 11.944 111.319 11.664C110.807 11.384 110.403 10.984 110.107 10.464C109.819 9.94403 109.675 9.33203 109.675 8.62803C109.675 7.92403 109.819 7.31603 110.107 6.80403C110.395 6.28403 110.795 5.88403 111.307 5.60403C111.827 5.32403 112.423 5.18403 113.095 5.18403C113.759 5.18403 114.347 5.32003 114.859 5.59203C115.371 5.86403 115.771 6.25603 116.059 6.76803C116.347 7.27203 116.491 7.86803 116.491 8.55603ZM114.091 7.96803C114.091 7.68003 113.995 7.45603 113.803 7.29603C113.611 7.12803 113.371 7.04403 113.083 7.04403C112.795 7.04403 112.559 7.12403 112.375 7.28403C112.191 7.43603 112.071 7.66403 112.015 7.96803H114.091ZM119.805 6.45603C120.069 6.07203 120.389 5.76803 120.765 5.54403C121.141 5.32003 121.545 5.20803 121.977 5.20803V7.71603H121.317C120.805 7.71603 120.425 7.81603 120.177 8.01603C119.929 8.21603 119.805 8.56403 119.805 9.06003V12H117.453V5.26803H119.805V6.45603ZM130.068 5.26803L125.796 15.204H123.24L124.848 11.712L122.088 5.26803H124.704L126.12 9.08403L127.488 5.26803H130.068Z" fill="#FF7D9A"/>
<defs>
<clipPath id="clip0">
<rect width="31" height="31" fill="white" transform="translate(31 31) rotate(-180)"/>
</clipPath>
</defs>
</svg>
